<svg xmlns="http://www.w3.org/2000/svg" viewBox="60 130 280 320" ><defs><style>.cls-1{fill:#1581b7;}</style></defs><g id="Layer_2" data-name="Layer 2"><path class="cls-1" d="M127.09,433.93l-42.74-208a36.45,36.45,0,0,1,28.37-43h0l42.74,208.05a36.45,36.45,0,0,1-28.37,43Z"/><path class="cls-1" d="M150.1,325.06a3.61,3.61,0,0,1-1.15-6.23c24.46-20.07,54-25.45,88.67-15.62,12.37,4.07,24,13.89,35.09,28.76a98.44,98.44,0,0,0,8,11.78,2.83,2.83,0,0,1-1.69,4.57c-13.45,2.58-27.59-5.29-42-16.51,7.7,37.61,37.64,55.74,76.53,66a2.36,2.36,0,0,1-.16,4.59c-93.12,17.94-95.64-27.93-121.07-52.62A117.22,117.22,0,0,0,150.1,325.06Z"/><path class="cls-1" d="M142.08,289.39a3.6,3.6,0,0,0,1.62,6.12c30.7,7.65,59.66-.12,86.81-23.87,9.44-9,15.77-22.85,19.39-41a96.89,96.89,0,0,1,2.15-14.05,2.83,2.83,0,0,0-3.49-3.41c-13.26,3.43-22.66,16.6-30.83,32.9-9.16-37.29,10.13-66.5,40.86-92.45a2.35,2.35,0,0,0-2.1-4.08c-91.84,23.67-74.46,66.2-86.86,99.41A117.37,117.37,0,0,1,142.08,289.39Z"/></g></svg>